<?xml version="1.0" encoding="UTF-8"?>
<svg xmlns="http://www.w3.org/2000/svg" xmlns:xlink="http://www.w3.org/1999/xlink" width="4833" height="530" xml:space="preserve" overflow="hidden">
  <defs>
    <clipPath id="clip0">
      <rect x="208" y="578" width="4833" height="530"></rect>
    </clipPath>
  </defs>
  <g clip-path="url(#clip0)" transform="translate(-208 -578)">
    <path d="M3116.05 875.802 3116.05 922.55 3210.76 922.55C3221.5 922.55 3229.09 920.736 3233.52 917.109 3237.96 913.482 3240.17 907.639 3240.17 899.579 3240.17 891.25 3238.02 885.205 3233.73 881.444 3229.43 877.682 3221.77 875.802 3210.76 875.802ZM968.05 789.157 968.05 907.639 1023.66 907.639C1047.84 907.639 1065.44 903.071 1076.46 893.937 1087.47 884.802 1092.98 869.622 1092.98 848.398 1092.98 827.173 1087.47 811.993 1076.46 802.859 1065.44 793.724 1047.84 789.157 1023.66 789.157ZM3945.08 782.306C3892.42 782.306 3866.1 804.336 3866.1 848.398 3866.1 892.459 3892.42 914.49 3945.08 914.49 3997.74 914.49 4024.07 892.459 4024.07 848.398 4024.07 804.336 3997.74 782.306 3945.08 782.306ZM3116.05 776.261 3116.05 816.561 3207.93 816.561C3217.07 816.561 3223.58 814.949 3227.48 811.725 3231.38 808.501 3233.32 803.53 3233.32 796.814 3233.32 789.56 3231.44 784.321 3227.68 781.097 3223.92 777.873 3217.34 776.261 3207.93 776.261ZM4580.15 704.527 4701.05 704.527 4701.05 806.486 4815.1 704.527 4952.52 704.527 4833.23 807.292 4972.27 992.269 4827.19 992.269 4748.2 881.041 4701.05 921.341 4701.05 992.269 4580.15 992.269ZM4179.15 704.527 4300.05 704.527 4300.05 806.486 4414.1 704.527 4551.52 704.527 4432.23 807.292 4571.27 992.269 4426.19 992.269 4347.2 881.041 4300.05 921.341 4300.05 992.269 4179.15 992.269ZM3395.15 704.527 3516.05 704.527 3516.05 907.639 3716.34 907.639 3716.34 992.269 3395.15 992.269ZM2995.15 704.527 3255.09 704.527C3326.01 704.527 3361.48 729.378 3361.48 779.082 3361.48 794.396 3357.51 806.553 3349.59 815.553 3341.66 824.554 3329.77 831.069 3313.92 835.099L3313.92 838.323C3332.19 841.815 3346.5 848.666 3356.84 858.876 3367.19 869.085 3372.36 884.936 3372.36 906.43 3372.36 926.311 3368.87 942.498 3361.88 954.991 3354.89 967.484 3343.48 976.82 3327.63 983 3311.77 989.179 3290.28 992.269 3263.15 992.269L2995.15 992.269ZM2592.15 704.527 2731.19 704.527 2850.88 855.249 2853.29 855.249 2853.29 704.527 2966.94 704.527 2966.94 992.269 2829.52 992.269 2708.21 839.935 2705.8 839.935 2705.8 992.269 2592.15 992.269ZM2005.15 704.527 2126.05 704.527 2126.05 992.269 2005.15 992.269ZM1248.15 704.527 1574.18 704.527 1574.18 777.873 1369.05 777.873 1369.05 814.143 1563.7 814.143 1563.7 880.638 1369.05 880.638 1369.05 920.132 1576.6 920.132 1576.6 992.269 1248.15 992.269ZM847.15 704.527 1056.71 704.527C1096.2 704.527 1128.24 709.228 1152.83 718.632 1177.41 728.035 1195.61 743.282 1207.43 764.372 1219.25 785.463 1225.16 813.471 1225.16 848.398 1225.16 883.324 1219.25 911.333 1207.43 932.423 1195.61 953.513 1177.41 968.76 1152.83 978.164 1128.24 987.567 1096.2 992.269 1056.71 992.269L847.15 992.269ZM3945.08 693.646C4016.55 693.646 4069.61 706.273 4104.27 731.528 4138.93 756.782 4156.25 795.739 4156.25 848.398 4156.25 901.056 4138.93 940.013 4104.27 965.268 4069.61 990.522 4016.55 1003.15 3945.08 1003.15 3873.62 1003.15 3820.56 990.522 3785.9 965.268 3751.24 940.013 3733.91 901.056 3733.91 848.398 3733.91 795.739 3751.24 756.782 3785.9 731.528 3820.56 706.273 3873.62 693.646 3945.08 693.646ZM2358.87 693.646C2428.19 693.646 2479.3 703.654 2512.22 723.669 2545.13 743.685 2562.39 771.693 2564 807.695L2424.97 807.695C2417.71 790.769 2395.95 782.306 2359.68 782.306 2307.29 782.306 2281.1 804.336 2281.1 848.398 2281.1 873.115 2287.54 891.384 2300.44 903.206 2313.34 915.027 2333.89 920.938 2362.1 920.938 2377.68 920.938 2390.98 919.326 2402 916.102 2413.01 912.878 2421.27 909.251 2426.78 905.221 2432.29 901.191 2435.04 898.101 2435.04 895.952L2372.58 895.952 2372.58 830.666 2565.21 830.666 2565.21 992.269 2480.58 992.269 2480.58 966.88C2452.91 991.06 2413.15 1003.15 2361.29 1003.15 2289.02 1003.15 2235.56 990.455 2200.9 965.066 2166.24 939.677 2148.91 900.653 2148.91 847.995 2148.91 795.605 2166.17 756.782 2200.7 731.528 2235.22 706.273 2287.95 693.646 2358.87 693.646ZM1784.52 693.646C1843.62 693.646 1888.96 700.698 1920.53 714.803 1952.1 728.908 1968.69 754.23 1970.3 790.769L1835.7 790.769C1834.89 782.977 1830.12 776.932 1821.39 772.634 1812.66 768.335 1799.83 766.186 1782.9 766.186 1764.63 766.186 1752.07 767.596 1745.22 770.417 1738.37 773.238 1734.95 777.335 1734.95 782.709 1734.95 788.082 1737.36 792.045 1742.2 794.597 1747.04 797.15 1756.31 798.963 1770.01 800.038L1869.95 809.307C1906.22 812.799 1934.16 821.867 1953.78 836.509 1973.39 851.152 1983.19 872.981 1983.19 901.997 1983.19 929.669 1975.94 950.827 1961.43 965.469 1946.92 980.112 1925.77 990.052 1897.96 995.291 1870.15 1000.53 1833.28 1003.15 1787.34 1003.15 1742.74 1003.15 1706.6 1000.19 1678.93 994.284 1651.26 988.373 1629.96 977.761 1615.05 962.447 1600.14 947.133 1592.15 925.505 1591.08 897.564L1728.1 897.564C1729.17 909.654 1734.48 917.781 1744.01 921.945 1753.55 926.109 1768.53 928.192 1788.95 928.192 1809.1 928.192 1822.93 926.848 1830.46 924.162 1837.98 921.475 1841.74 917.311 1841.74 911.669 1841.74 905.758 1839.19 901.258 1834.08 898.168 1828.98 895.078 1819.31 892.728 1805.07 891.116L1711.57 880.638C1675.57 876.608 1647.7 868.078 1627.95 855.047 1608.2 842.017 1598.33 820.591 1598.33 790.769 1598.33 754.499 1614.38 729.244 1646.49 715.005 1678.59 700.765 1724.6 693.646 1784.52 693.646Z" stroke="#FFFFFF" stroke-linejoin="round" stroke-miterlimit="10" fill="#FFFFFF" fill-rule="evenodd"></path>
    <text fill="#000000" fill-opacity="0" font-family="Arial,Arial_MSFontService,sans-serif" font-size="309.504" x="847.15" y="964.462">DESIGNBLOKK</text>
    <path d="M468 1108 208 990.621 208 705.38 468 588 728 705.38 728 990.621Z" fill="#036DF1" fill-rule="evenodd"></path>
  </g>
</svg>
